# xmcd CD database file
#
# Track frame offsets:
#	150
#	15395
#	29509
#	41554
#	55724
#	68556
#	81138
#	95770
#	106794
#	119640
#	132908
#	146803
#	159178
#	171066
#	183963
#	196982
#	208243
#	222516
#	236421
#	249539
#	264100
#	279726
#	292128
#	305392
#
# Disc length: 4276 seconds
#
# Revision: 2
# Processed by: cddbd v1.5.1PL0 Copyright (c) Steve Scherf et al.
# Submitted via: CDex 1.51
#
DISCID=5d10b218
DTITLE=Django Reinhardt - Crazy Rhythm - The Famous 1936-1937 Recordings - CD1
DYEAR=2003
DGENRE=Jazz
TTITLE0=I Can't Give You Anything But Love [Fields - Mc Hugh] [1936]
TTITLE1=I'se A Muggin' [Stuff Smith] [1936]
TTITLE2=Oriental Shuffle [D.Reinhardt - S.Grappelli] [1936]
TTITLE3=After You've Gone [Creamer - Layton] [1936]
TTITLE4=Are You In The Mood [D.Reinhardt - S.Grappelli] [1936]
TTITLE5=Limehouse Blues [Furber - Braham] [1936]
TTITLE6=Georgia On My Mind [Carmichael] [1936]
TTITLE7=Swing Guitars [D.Reinhardt - S.Grappelli] [1936]
TTITLE8=Nagasaki [Dixon - Warren] [1936]
TTITLE9=Shine [Mack Brown - Debney] [1936]
TTITLE10=In The Still Of The Night [C.Porter] [1936]
TTITLE11=Sweet Chorus [D.Reinhardt - S.Grappelli] [1936]
TTITLE12=Tears [D.Reinhardt - S.Grappelli] [1937]
TTITLE13=Charleston [Mack Johnson] [1937]
TTITLE14=You're Driving Me Crazy [Donaldson] [1937]
TTITLE15=Exactly Like You [Fields - Mc Hugh] [1937]
TTITLE16=Solitude [Ellington] [1937]
TTITLE17=Hot Lips [Lange - Davis] [1937]
TTITLE18=Ain't Misbehavin' [Waller - Razaf] [1937]
TTITLE19=When Day Is Done [De Sylva - Katscher] [1937]
TTITLE20=Body And Soul [Green - Heyman - Sour - Eyton - Laub] [1937]
TTITLE21=Rose Room [Hickman - Williams] [1937]
TTITLE22=Runin' Wild [Grey - Wood - Gibbs] [1937]
TTITLE23=Chicago [Fischer] [1937]
EXTD=YEAR: 2003
EXTT0=
EXTT1=
EXTT2=
EXTT3=
EXTT4=
EXTT5=
EXTT6=
EXTT7=
EXTT8=
EXTT9=
EXTT10=
EXTT11=
EXTT12=
EXTT13=
EXTT14=
EXTT15=
EXTT16=
EXTT17=
EXTT18=
EXTT19=
EXTT20=
EXTT21=
EXTT22=
EXTT23=
PLAYORDER=
